<?xml version="1.0" encoding="UTF-8"?>
<svg id="Layer_2" data-name="Layer 2" xmlns="http://www.w3.org/2000/svg" viewBox="0 0 179.09 46.58">
  <defs>
    <style>
      .cls-1 {
        fill: none;
      }

      .cls-1, .cls-2 {
        stroke: #3554d1;
        stroke-miterlimit: 10;
        stroke-width: 2.18px;
      }

      .cls-3 {
        fill: #3554d1;
      }

      .cls-2 {
        fill: #fff;
      }

      .cls-4 {
        fill: #0d2857;
      }
    </style>
  </defs>
  <g id="Layer_1-2" data-name="Layer 1">
    <g>
      <g>
        <path class="cls-3" d="m46.99,39.71c-.67.95-1.65,1.67-2.93,2.18-1.28.51-2.74.75-4.39.74-1.31-.03-2.46-.33-3.44-.92-.98-.59-1.75-1.43-2.31-2.53s-.88-2.34-.96-3.74c-.06-1.09.07-2.57.41-4.43s.92-3.47,1.76-4.83c.83-1.36,1.88-2.39,3.13-3.11,1.25-.72,2.69-1.06,4.3-1.03,1.86.04,3.35.59,4.45,1.66,1.11,1.07,1.74,2.57,1.89,4.51h-2.56c-.1-1.27-.48-2.25-1.14-2.93s-1.57-1.04-2.74-1.08c-1.73-.06-3.17.56-4.33,1.86-1.16,1.31-1.92,3.21-2.29,5.72l-.26,1.93-.04,1.05c0,1.81.37,3.21,1.12,4.2.74.99,1.79,1.49,3.12,1.51,1.94.05,3.47-.43,4.61-1.43l.83-4.5h-4.52l.39-2.16h7.05l-1.14,7.34Z"/>
        <path class="cls-3" d="m58.41,42.63c-1.28-.03-2.38-.33-3.33-.92-.94-.59-1.68-1.45-2.22-2.6-.54-1.14-.84-2.42-.89-3.85-.06-1.11.07-2.48.37-4.12.3-1.63.83-3.11,1.57-4.42.74-1.31,1.65-2.36,2.71-3.15,1.44-1.06,3.08-1.58,4.93-1.54,1.96.04,3.5.71,4.63,2.03s1.73,3.1,1.82,5.35c.04.96-.06,2.19-.3,3.68-.23,1.49-.65,2.87-1.25,4.14-.6,1.28-1.37,2.35-2.29,3.21-1.62,1.51-3.53,2.24-5.74,2.19Zm7.04-12.58c.06-1.81-.26-3.21-.95-4.21-.69-1-1.71-1.51-3.07-1.55-1.23-.04-2.33.29-3.3.99-.97.7-1.76,1.74-2.38,3.13-.62,1.39-1.01,3.15-1.18,5.28l-.04.9c-.05,1.8.27,3.21.96,4.23.7,1.02,1.71,1.55,3.04,1.58,1.74.05,3.17-.58,4.32-1.88,1.14-1.3,1.9-3.12,2.28-5.47.18-1.16.29-2.16.32-3Z"/>
        <path class="cls-4" d="m75.94,42.57c-1.03-.02-1.94-.26-2.72-.73-.79-.47-1.41-1.14-1.87-2.02-.46-.88-.72-1.88-.79-3.02-.08-1.17.05-2.41.37-3.73.33-1.32.85-2.48,1.58-3.49.73-1,1.58-1.75,2.55-2.25.98-.5,2.03-.74,3.17-.71,1.04.02,1.96.27,2.74.74.78.47,1.4,1.15,1.84,2.04.45.88.7,1.89.77,3.01.07,1.25-.06,2.54-.41,3.86-.34,1.32-.87,2.47-1.59,3.43s-1.56,1.69-2.52,2.17-2.01.71-3.13.69Zm4.42-8.4l.09-1.01c.07-1.27-.1-2.22-.51-2.88-.41-.65-1.03-1-1.86-1.02-1.3-.04-2.33.53-3.1,1.73-.76,1.19-1.2,2.86-1.29,5.01-.07,1.26.1,2.23.5,2.91s1.03,1.03,1.89,1.06c1.12.05,2.04-.39,2.77-1.31.73-.92,1.21-2.22,1.44-3.91l.07-.58Z"/>
        <path class="cls-4" d="m98.81,26.84l-1.75,10.23c-.24,1.71-.95,3.07-2.13,4.06s-2.64,1.48-4.39,1.45c-1.09-.02-2.05-.26-2.85-.72-.81-.46-1.4-1.1-1.79-1.94s-.52-1.78-.39-2.84l1.74-10.25h3.12l-1.74,10.26c-.05.4-.05.77-.01,1.12.14,1.15.83,1.75,2.06,1.79.88.03,1.6-.21,2.16-.73s.92-1.24,1.09-2.2l1.75-10.25h3.13Z"/>
        <path class="cls-4" d="m112.51,29.43h-4.6l-2.24,12.93h-3.12l2.24-12.93h-4.55l.46-2.59h12.28l-.46,2.59Z"/>
        <path class="cls-4" d="m122.53,36.01h-5.95l-1.11,6.34h-3.12l2.7-15.52h9.83l-.46,2.59h-6.69l-.7,4.01h5.97l-.46,2.58Z"/>
        <path class="cls-4" d="m127.59,42.36h-3.12l2.69-15.52h3.12l-2.69,15.52Z"/>
        <path class="cls-4" d="m134.34,39.79h6.59l-.45,2.57h-9.71l2.7-15.52h3.12l-2.25,12.95Z"/>
        <path class="cls-4" d="m153.97,29.43h-4.61l-2.24,12.93h-3.12l2.24-12.93h-4.55l.46-2.59h12.28l-.46,2.59Z"/>
        <path class="cls-4" d="m164.05,35.63h-5.95l-.72,4.16h6.99l-.45,2.57h-10.12l2.7-15.52h10.09l-.46,2.59h-6.96l-.65,3.7h5.97l-.45,2.5Z"/>
        <path class="cls-4" d="m172.69,36.68h-2.54l-.99,5.68h-3.12l2.7-15.52h5.14c1.72.01,3.04.42,3.97,1.23.93.81,1.34,1.94,1.23,3.38-.15,2.13-1.29,3.61-3.41,4.45l2.19,6.3v.17h-3.33l-1.83-5.68Zm-2.09-2.59l2.32.02c.82-.01,1.5-.24,2.04-.67.54-.43.86-1.01.96-1.75.1-.69-.01-1.23-.33-1.62-.32-.39-.83-.6-1.52-.63h-2.67s-.81,4.65-.81,4.65Z"/>
      </g>
      <path class="cls-2" d="m2.64,22.41l9.57,12.19c.17.21.26.48.26.75v8.94c0,.89.93,1.47,1.73,1.09l3.68-1.75c.42-.2.69-.63.69-1.09v-7.2c0-.27.09-.53.25-.74l9.47-12.19"/>
      <ellipse class="cls-1" cx="15.47" cy="20.79" rx="14.38" ry="3.9"/>
      <path class="cls-4" d="m27.1.04l9,5.23c.07.04.15.05.23.04l3.81-.85c.06-.01.12,0,.18.01l1.93.74c.17.07.25.27.17.43l-.72,1.42c-.03.07-.09.12-.17.15l-4.42,1.73c-.07.03-.13.08-.16.15l-4.67,8.94c-.07.13-.21.19-.35.16l-.56-.14c-.13-.03-.23-.15-.24-.29l-.39-6.71c-.01-.18-.17-.31-.35-.29l-5.26.6c-.1.01-.19.07-.24.17l-1.06,2.02c-.15.28-.57.19-.59-.13l-.11-1.77c0-.15-.12-.27-.27-.29l-.74-.11.56-.63c.09-.1.11-.24.04-.36l-.75-1.39c-.15-.27.15-.57.43-.42l1.99,1.08c.09.05.19.05.28,0l4.91-2.23c.17-.08.23-.28.14-.44l-3.46-6c-.07-.13-.05-.28.06-.38l.41-.39c.1-.1.25-.11.37-.04Z"/>
      <path class="cls-4" d="m26.18,10.22v.57c-4.25.62-8.01,2.67-10.6,5.64-2.17,2.57-3.38,5.36-3.79,8.14-1.38-.1-2.68-.25-3.86-.45.25-1.42.67-2.81,1.29-4.13,2.8-6.44,9.98-10.83,16.96-9.78Z"/>
      <path class="cls-1" d="m1.09,20.79c0,1.41,2.73,2.64,6.84,3.32,1.18.2,2.48.35,3.86.45,1.17.09,2.41.13,3.68.13,7.94,0,14.38-1.75,14.38-3.9"/>
    </g>
  </g>
</svg>